<?xml version="1.0" encoding="utf-8"?>
<!-- Generator: Adobe Illustrator 19.2.0, SVG Export Plug-In . SVG Version: 6.00 Build 0)  -->
<svg version="1.1" id="Layer_1" xmlns="http://www.w3.org/2000/svg" xmlns:xlink="http://www.w3.org/1999/xlink" x="0px" y="0px"
	 viewBox="0 0 1920 1080" style="enable-background:new 0 0 1920 1080;" xml:space="preserve">
<style type="text/css">
	.st0{fill:#97D3FF;}
	.st1{fill:#754C24;}
	.st2{fill:#4D4D4D;}
	.st3{fill:#333333;}
	.st4{fill:#F69B76;}
	.st5{fill:#F8C09D;}
	.st6{fill:#F6AE8D;}
	.st7{fill:#EF937E;}
	.st8{fill:#AF4135;}
	.st9{fill:#FFFFFF;}
	.st10{fill:none;stroke:#333333;stroke-width:4;stroke-linecap:round;stroke-miterlimit:10;}
</style>
<path class="st0" d="M1138.4,290.3c0,0,10.1-10.6,17.4-9.3c7.3,1.3,6.2,11,0,9.3S1138.4,290.3,1138.4,290.3z"/>
<path class="st0" d="M1137.6,325.5c0,0,13.6-5.2,19.7-0.8c6,4.4,0.8,12.6-4,8.4S1137.6,325.5,1137.6,325.5z"/>
<path class="st0" d="M900.9,248.3c0,0-8.5-13.6-16-12.6s-8.8,9.2-2,9.2C890.2,245,900.9,248.3,900.9,248.3z"/>
<path class="st0" d="M912.2,290.5c0,0-11.8-3.8-18-1.5s-2.6,11.5,4.1,7.2C905,292,912.2,290.5,912.2,290.5z"/>
<path class="st0" d="M925.8,211.5c0,0-0.6-11.1-4.4-15.8c-7.1-8.8-16.9,3.1-8.2,6.4C920.3,204.8,925.8,211.5,925.8,211.5z"/>
<path class="st1" d="M1129.1,874.6l15.6,37.9l74.9-30.4c0,0-9.8-15.8-29.5-11.5c-19.7,4.3-30.9,21.1-30.9,21.1l-12.4-24.4
	L1129.1,874.6z"/>
<path class="st2" d="M1121.2,880.2l37.3-18c0,0-21.6-59-47.9-117.9C1073.9,661.9,946,660,946,660l-16.6,40c0,0,110.2-4.9,141.8,55.8
	C1101.5,813.9,1121.2,880.2,1121.2,880.2z"/>
<path class="st1" d="M749.4,773.7l-36.7-18.3l-36.4,72.1c0,0,17.8,5.5,29.8-10.7c12-16.1,9.4-36.2,9.4-36.2l25.4,10.3L749.4,773.7z"
	/>
<path class="st3" d="M752.7,762.5l-16.3,35c0,0,129.5,57,168-16c33.1-62.7,67.5-135,67.5-135l-37.6-16.3c0,0-32.3,71.9-68.4,137.1
	C846.4,802.5,752.7,762.5,752.7,762.5z"/>
<path class="st4" d="M1014.9,496.6L1014.9,496.6c7.3,7.1,19,6.9,26.1-0.5c0,0,47.1-41.5,90.5-87.5c43.4-46.1,68.5-113.4,68.5-113.4
	c7.1-7.3,6.9-19-0.5-26.1l0,0c-7.3-7.1-19-6.9-26.1,0.5c0,0-24.4,67.7-69.8,114.8s-89.2,86.1-89.2,86.1
	C1007.4,477.9,1007.6,489.6,1014.9,496.6z"/>
<g>
	<path class="st5" d="M1203.2,271.6l4.4,10.5l32.7-13.5c2.9-1.2,4.3-4.5,3.1-7.4l0,0c-1.2-2.9-4.5-4.3-7.4-3.1L1203.2,271.6z"/>
	<path class="st5" d="M1195.4,268.7l8.2,7.9l29.7-31c2.2-2.3,2.1-5.9-0.2-8l0,0c-2.3-2.2-5.9-2.1-8,0.2L1195.4,268.7z"/>
	<path class="st5" d="M1189,259.8l9.7,5.9l22.2-36.7c1.6-2.7,0.8-6.2-1.9-7.8l0,0c-2.7-1.6-6.2-0.8-7.8,1.9L1189,259.8z"/>
	<path class="st5" d="M1178.2,263l11.2,1.9l7-42.3c0.5-3.1-1.6-6-4.7-6.5l0,0c-3.1-0.5-6,1.6-6.5,4.7L1178.2,263z"/>
	<path class="st5" d="M1174.5,277.2l10-5.5l-10.7-18.2c-1.5-2.7-5-3.8-7.7-2.2l0,0c-2.7,1.5-3.8,5-2.2,7.7L1174.5,277.2z"/>
	<path class="st5" d="M1173.6,263.4l6.9-11.4c1-1.6,3-2.1,4.6-1.1l33.3,20.2c1.6,1,2.1,3,1.1,4.6l-6.9,11.4
		c-3.6,6-11.4,7.9-17.4,4.3l-17.3-10.5C1171.9,277.2,1170,269.4,1173.6,263.4z"/>
</g>
<path class="st4" d="M961.7,470.5L961.7,470.5c-8.4,5.8-19.9,3.6-25.6-4.8c0,0-39.5-48.8-74.6-101.5
	c-35.1-52.7-48.5-123.3-48.5-123.3c-5.8-8.4-3.6-19.9,4.8-25.6l0,0c8.4-5.8,19.9-3.6,25.6,4.8c0,0,12.7,70.8,49.6,124.9
	s73.5,99.9,73.5,99.9C972.2,453.2,970.1,464.7,961.7,470.5z"/>
<g>
	<path class="st5" d="M820.2,220.3l-7.9,8.2L786.7,204c-2.3-2.2-2.3-5.8-0.1-8l0,0c2.2-2.3,5.8-2.3,8-0.2L820.2,220.3z"/>
	<path class="st5" d="M828.5,220.4l-10.5,4.3l-16.3-39.7c-1.2-2.9,0.2-6.2,3.1-7.4l0,0c2.9-1.2,6.2,0.2,7.4,3.1L828.5,220.4z"/>
	<path class="st5" d="M837.7,214.5l-11.2,1.9l-7.3-42.3c-0.5-3.1,1.5-6,4.6-6.6l0,0c3.1-0.5,6,1.5,6.6,4.6L837.7,214.5z"/>
	<path class="st5" d="M846.6,221.3l-11.1-2.4l8.9-42c0.6-3.1,3.7-5,6.7-4.4l0,0c3.1,0.6,5,3.7,4.4,6.7L846.6,221.3z"/>
	<path class="st5" d="M844.8,236l-7.3-8.7l16.6-13c2.4-2,6-1.7,8,0.7v0c2,2.4,1.7,6-0.7,8L844.8,236z"/>
	<path class="st5" d="M850.7,223.4l-2.3-13.1c-0.3-1.8-2.1-3.1-3.9-2.7l-38.3,6.6c-1.8,0.3-3.1,2.1-2.7,3.9l2.3,13.1
		c1.2,6.9,7.8,11.6,14.7,10.4l19.9-3.4C847.3,236.9,851.9,230.4,850.7,223.4z"/>
</g>
<path class="st2" d="M946.9,704.8l-1.3-0.2c-41.1-6.7-68.8-45.9-62.1-87l0-0.2l150,24.6l0,0.2C1026.8,683.3,988,711.6,946.9,704.8z"
	/>
<path class="st4" d="M999.2,426L999.2,426c37.5,6.1,72.4,37,62.3,71.9c-10,35-22.9,56.2-28,144c-0.2,2.8-150-24.6-150-24.6l1-11.7
	c6-53.7,20.3-120.7,41.3-152.9C947.5,419.7,976.2,422.3,999.2,426z"/>
<path class="st5" d="M1031,441.3c-2,13.2-14.4,22.5-27.7,20.5l0,0l-0.2,0c-13.2-2-22.6-14.6-20.5-27.9l3.3-21.3l48.4,7.4L1031,441.3
	z"/>
<path class="st6" d="M983.4,428.4c8.8,5.5,18.3,9.2,27.6,10.6c6.5,1,13.4,1,20.4,0l2.3-15.3l-48.4-7.4L983.4,428.4z"/>
<path class="st5" d="M1012.7,427.8c-34.5-5.3-71.4-41.7-64.9-84l19.4-127.1l152.3,23.3l-19.4,127.1
	C1093.6,409.3,1065,435.8,1012.7,427.8z"/>
<rect x="937.5" y="273" transform="matrix(0.9885 0.1509 -0.1509 0.9885 55.082 -140.8543)" class="st3" width="36.3" height="39"/>
<ellipse transform="matrix(0.1509 -0.9885 0.9885 0.1509 502.8571 1204.4694)" class="st5" cx="952.6" cy="309.5" rx="21.9" ry="21.9"/>
<path class="st7" d="M947.8,311.9c0.6-4.2,4.6-7.1,8.8-6.5c1.2,0.2,2.2,0.6,3.2,1.2c-1-2.5-3.2-4.3-6-4.8c-4.2-0.6-8.2,2.3-8.8,6.5
	c-0.5,3.1,0.9,6,3.3,7.6C947.7,314.7,947.6,313.3,947.8,311.9z"/>
<path class="st3" d="M980.3,214.7l-0.1,0.4l-9.5-1.4c-11.6-1.8-22.4,5.9-24.1,17.5l0-0.2l-4.5,29.6l-3.7,24.3l35.8,5.5l1.7-11
	c1.1-7.4,7.7-12.3,15-11.2l106.6,16.3c13.9,2.1,27.1-7.6,29.2-21.5l7.7-50.8L1009.7,193C995.8,190.9,982.4,200.8,980.3,214.7z"/>
<path class="st8" d="M1050,363c-18.9-4.4-35.3-2-44.3,9.9c-11.6,15.5,0.3,31.6,21,29c22-2.8,40.7,12.5,51.7,5.5
	c10.9-6.9,11.5-20,4-29C1075.1,369.9,1067.6,367,1050,363z"/>
<path class="st9" d="M1082.4,378.4c-7.4-8.6-14.8-11.4-32.4-15.4c-15.9-3.7-28.4-3.2-39.1,4.7c0,0,0.1,7,3.4,7s15.2,1.3,33.1,4.3
	c17.7,3,30.8,6.5,33.5,6.9C1081.7,385.9,1084.9,381.3,1082.4,378.4z"/>
<path class="st7" d="M1046.1,387.6c-17.9-2.1-24.5,8.4-27.7,14.3c2.5,0.3,5.3,0.3,8.4-0.1c16.8-2.1,31.6,6.2,42.6,7.2
	C1068.7,403.6,1065.1,389.9,1046.1,387.6z"/>
<path class="st7" d="M1059.8,337.8l-2.4,15.7c-0.1,0.7,0.7,1.4,1.4,1.5l9.3,1.4c2.5,0.4,4.4-2.3,3.1-4.5l-8.8-14.5
	C1061.8,336.2,1060,336.5,1059.8,337.8z"/>
<ellipse transform="matrix(0.1509 -0.9885 0.9885 0.1509 552.6509 1290.6906)" class="st3" cx="1027.7" cy="323.6" rx="8.8" ry="5"/>
<ellipse transform="matrix(0.1509 -0.9885 0.9885 0.1509 596.4724 1360.8718)" class="st3" cx="1090.4" cy="333.2" rx="8.8" ry="5"/>
<path class="st10" d="M1036,296.8c0,0-3.4-2-5.8-2.4c-2.7-0.5-5.9,0.2-5.9,0.2"/>
<path class="st10" d="M1100.5,306.6c0,0-3.4-2-5.8-2.4c-2.7-0.5-5.9,0.2-5.9,0.2"/>
</svg>
